# xmcd CD database file
#
# Track frame offsets:
#	150
#	52439
#	73680
#	98309
#	120868
#	137819
#
# Disc length: 2163 seconds
#
# Revision: 0
# Processed by: cddbd v1.4PL0 Copyright (c) Steve Scherf et al.
# Submitted via: CDex 1.50Beta6
#
DISCID=4e087106
DTITLE=Paul Gonsalves - Tell It The Way It Is !
DYEAR=1963
DGENRE=Jazz
TTITLE0=Tell It The Way It Is !
TTITLE1=Things Ain't What They Used to Be
TTITLE2=Duke's Place
TTITLE3=Impulsive
TTITLE4=Rapscallion in Rab's Canyon
TTITLE5=Body and Soul
EXTD=YEAR: 1963
EXTT0=
EXTT1=
EXTT2=
EXTT3=
EXTT4=
EXTT5=
PLAYORDER=
